<?xml version="1.0" encoding="utf-8"?>
<!-- Generator: Adobe Illustrator 16.0.0, SVG Export Plug-In . SVG Version: 6.00 Build 0)  -->
<!DOCTYPE svg PUBLIC "-//W3C//DTD SVG 1.1//EN" "http://www.w3.org/Graphics/SVG/1.1/DTD/svg11.dtd">
<svg version="1.1" id="Layer_1" xmlns="http://www.w3.org/2000/svg" xmlns:xlink="http://www.w3.org/1999/xlink" x="0px" y="0px"
	 width="841.89px" height="595.28px" viewBox="0 0 841.89 595.28" enable-background="new 0 0 841.89 595.28" xml:space="preserve">
<g>
	<circle cx="220.967" cy="365.359" r="13.593"/>
	<circle cx="166.714" cy="339.944" r="13.595"/>
	<circle cx="153.119" cy="288.05" r="13.595"/>
	<circle cx="275.216" cy="340.277" r="13.594"/>
	<circle cx="288.81" cy="288.383" r="13.595"/>
	<path d="M219.223,155.908c-25.216,0-48.656,6.272-70.319,18.807c-21.665,12.542-38.768,29.881-51.312,52.018
		c-12.545,22.14-18.818,46.173-18.818,72.104c0,38.895,13.77,72.044,41.308,99.442c27.539,27.397,61.32,41.094,101.344,41.094
		c39.533,0,73.038-13.76,100.516-41.274c27.479-27.525,41.219-61.038,41.219-100.546c0-39.873-13.771-73.448-41.312-100.728
		C294.309,169.549,260.1,155.908,219.223,155.908z M320.291,356.22c-9.985,17.624-23.89,31.521-41.716,41.678
		c-17.823,10.161-37.212,15.239-58.161,15.239c-31.365,0-58.167-11.04-80.401-33.14c-22.235-22.093-33.354-49.181-33.354-81.254
		c0-21.665,5.024-41.312,15.069-58.942c10.045-17.622,24.014-31.637,41.9-42.046c17.886-10.407,36.815-15.605,56.785-15.605
		c20.337,0,39.571,5.198,57.703,15.605c18.129,10.409,32.188,24.269,42.174,41.59c9.985,17.318,14.978,36.693,14.978,58.117
		C335.269,319.005,330.276,338.593,320.291,356.22z"/>
	<polygon points="406.942,162.695 379.972,162.695 379.972,432.585 486.092,432.585 498.492,406.535 406.942,406.535 	"/>
	<path d="M637.258,162.695h-6.609l-127.516,269.89h30.096l42.041-88.797h116.268l42.449,88.797h29.131L637.258,162.695z
		 M587.604,317.735l46.25-97.696l46.018,97.696H587.604z"/>
</g>
</svg>
